<svg width="20" height="21" viewBox="0 0 20 21" fill="none" xmlns="http://www.w3.org/2000/svg">
<path d="M8.34006e-05 8.42928C-0.0100222 3.9929 3.40568 0.34477 7.80163 0.02139C12.1268 -0.291885 16.0276 2.87118 16.634 7.19639C16.9573 9.47016 16.4116 11.5418 15.0373 13.381C14.8149 13.6741 14.825 13.8257 15.0878 14.0884C16.5935 15.6245 18.0791 17.1909 19.5747 18.7471C20.1002 19.3029 20.1406 19.9497 19.6859 20.4045C19.2412 20.8592 18.5641 20.8289 18.069 20.3236C16.5531 18.7673 15.0474 17.201 13.5517 15.6245C13.2486 15.3112 13.0667 15.291 12.6827 15.5234C7.77131 18.5652 1.13191 15.574 0.141562 9.87438C0.0607172 9.37921 0.0202947 8.87392 8.34006e-05 8.42928ZM8.35744 2.1941C4.94174 2.1941 2.19301 4.94283 2.1829 8.34843C2.17279 11.7439 4.93163 14.5129 8.33723 14.5331C11.763 14.5432 14.532 11.7742 14.5219 8.33833C14.5118 4.91252 11.7832 2.1941 8.35744 2.1941Z" fill="white"/>
</svg>
