<svg width="15" height="18" viewBox="0 0 15 18" fill="none" xmlns="http://www.w3.org/2000/svg">
<path d="M0.22903 7.06643C0.22903 12.4915 7.18358 17.1416 7.18358 17.1416C7.18358 17.1416 14.1381 12.4915 14.1381 7.06643C14.1381 5.21651 13.4054 3.44236 12.1012 2.13427C10.797 0.826185 9.02804 0.0913086 7.18358 0.0913086C5.33912 0.0913086 3.5702 0.826185 2.26597 2.13427C0.96174 3.44236 0.22903 5.21651 0.22903 7.06643Z" fill="#4502C7"/>
<path d="M7.18414 9.39227C5.90384 9.39227 4.86595 8.35131 4.86595 7.06723C4.86595 5.78314 5.90384 4.74219 7.18414 4.74219C8.46443 4.74219 9.50232 5.78314 9.50232 7.06723C9.50232 8.35131 8.46443 9.39227 7.18414 9.39227Z" fill="white"/>
</svg>
